<svg width="153" height="128" viewBox="0 0 153 128" fill="none" xmlns="http://www.w3.org/2000/svg">
<g clip-path="url(#clip0_1_25)">
<g filter="url(#filter0_d_1_25)">
<path d="M41.0073 32.548L70.7849 57.6763C75.2736 61.4641 82.0447 60.5863 85.4191 55.7789L105.619 27L129.576 60.6819C135.03 68.349 127.84 78.6188 118.77 76.1184L105.619 72.4932V98C105.619 103.523 101.142 108 95.6193 108H51.0073C45.4844 108 41.0073 103.523 41.0073 98V70.274L31.6756 73.2818C22.2122 76.3321 14.5795 65.2017 20.8346 57.4729L41.0073 32.548Z" fill="#4E0D81"/>
<path d="M41.0073 32.548L70.7849 57.6763C75.2736 61.4641 82.0447 60.5863 85.4191 55.7789L105.619 27M41.0073 32.548V70.274M41.0073 32.548L20.8346 57.4729C14.5795 65.2017 22.2122 76.3321 31.6756 73.2818L41.0073 70.274M105.619 27L129.576 60.6819C135.03 68.349 127.84 78.6188 118.77 76.1184L105.619 72.4932M105.619 27V72.4932M105.619 72.4932V98C105.619 103.523 101.142 108 95.6193 108H51.0073C45.4844 108 41.0073 103.523 41.0073 98V70.274" stroke="#4E0D81" stroke-width="4"/>
</g>
<path d="M66.5277 82V72.64H72.1632V74.2065H68.0942V76.54H71.3832V78.1H68.0942V82H66.5277ZM76.3939 82.195C75.7742 82.195 75.2239 82.0693 74.7429 81.818C74.2619 81.5667 73.8849 81.2178 73.6119 80.7715C73.3389 80.3252 73.2024 79.8138 73.2024 79.2375C73.2024 78.7218 73.3215 78.243 73.5599 77.801C73.7982 77.359 74.147 77.0058 74.6064 76.7415L74.5739 77.242C74.2142 76.969 73.9347 76.6548 73.7354 76.2995C73.5404 75.9398 73.4429 75.5368 73.4429 75.0905C73.4429 74.5532 73.5685 74.0873 73.8199 73.693C74.0755 73.2987 74.4244 72.9932 74.8664 72.7765C75.3084 72.5555 75.8175 72.445 76.3939 72.445C76.9702 72.445 77.4794 72.5555 77.9214 72.7765C78.3677 72.9932 78.7165 73.2987 78.9679 73.693C79.2235 74.0873 79.3514 74.5532 79.3514 75.0905C79.3514 75.5368 79.256 75.9377 79.0654 76.293C78.879 76.6483 78.5952 76.969 78.2139 77.255L78.2074 76.748C78.658 77.0037 79.0025 77.3547 79.2409 77.801C79.4835 78.243 79.6049 78.7218 79.6049 79.2375C79.6049 79.8138 79.4662 80.3252 79.1889 80.7715C78.9159 81.2178 78.5367 81.5667 78.0514 81.818C77.5704 82.0693 77.0179 82.195 76.3939 82.195ZM76.3939 80.7195C76.8532 80.7195 77.2259 80.5938 77.5119 80.3425C77.8022 80.0912 77.9474 79.7228 77.9474 79.2375C77.9474 78.7522 77.8044 78.3838 77.5184 78.1325C77.2324 77.8768 76.8575 77.749 76.3939 77.749C75.9345 77.749 75.564 77.8768 75.2824 78.1325C75.0007 78.3838 74.8599 78.7522 74.8599 79.2375C74.8599 79.7228 75.0007 80.0912 75.2824 80.3425C75.564 80.5938 75.9345 80.7195 76.3939 80.7195ZM76.3939 76.2605C76.7795 76.2605 77.0915 76.1652 77.3299 75.9745C77.5725 75.7795 77.6939 75.4848 77.6939 75.0905C77.6939 74.6962 77.5725 74.4037 77.3299 74.213C77.0915 74.018 76.7795 73.9205 76.3939 73.9205C76.0125 73.9205 75.7005 74.018 75.4579 74.213C75.2195 74.4037 75.1004 74.6962 75.1004 75.0905C75.1004 75.4848 75.2195 75.7795 75.4579 75.9745C75.7005 76.1652 76.0125 76.2605 76.3939 76.2605ZM50.453 100.195C49.517 100.195 48.7153 99.9913 48.048 99.584C47.3806 99.1723 46.8671 98.6003 46.5075 97.868C46.1521 97.1357 45.9745 96.2863 45.9745 95.32C45.9745 94.3537 46.1521 93.5043 46.5075 92.772C46.8671 92.0397 47.3806 91.4698 48.048 91.0625C48.7153 90.6508 49.517 90.445 50.453 90.445C51.532 90.445 52.4311 90.7158 53.1505 91.2575C53.8698 91.7948 54.3746 92.5207 54.665 93.435L53.0855 93.8705C52.9035 93.2595 52.5936 92.7828 52.156 92.4405C51.7183 92.0938 51.1506 91.9205 50.453 91.9205C49.8246 91.9205 49.3003 92.0613 48.88 92.343C48.464 92.6247 48.1498 93.0212 47.9375 93.5325C47.7295 94.0395 47.6233 94.6353 47.619 95.32C47.619 96.0047 47.723 96.6027 47.931 97.114C48.1433 97.621 48.4596 98.0153 48.88 98.297C49.3003 98.5787 49.8246 98.7195 50.453 98.7195C51.1506 98.7195 51.7183 98.5462 52.156 98.1995C52.5936 97.8528 52.9035 97.3762 53.0855 96.7695L54.665 97.205C54.3746 98.1193 53.8698 98.8473 53.1505 99.389C52.4311 99.9263 51.532 100.195 50.453 100.195ZM56.2221 100V90.445H57.7886V100H56.2221ZM62.8362 100.195C62.1342 100.195 61.521 100.037 60.9967 99.7205C60.4724 99.4042 60.065 98.9687 59.7747 98.414C59.4887 97.855 59.3457 97.2137 59.3457 96.49C59.3457 95.7533 59.493 95.1077 59.7877 94.553C60.0824 93.9983 60.4919 93.565 61.0162 93.253C61.5405 92.941 62.1472 92.785 62.8362 92.785C63.5425 92.785 64.1579 92.9432 64.6822 93.2595C65.2065 93.5758 65.6139 94.0135 65.9042 94.5725C66.1945 95.1272 66.3397 95.7663 66.3397 96.49C66.3397 97.218 66.1924 97.8615 65.8977 98.4205C65.6074 98.9752 65.2 99.4107 64.6757 99.727C64.1514 100.039 63.5382 100.195 62.8362 100.195ZM62.8362 98.726C63.4602 98.726 63.9239 98.518 64.2272 98.102C64.5305 97.686 64.6822 97.1487 64.6822 96.49C64.6822 95.8097 64.5284 95.268 64.2207 94.865C63.913 94.4577 63.4515 94.254 62.8362 94.254C62.4159 94.254 62.0692 94.3493 61.7962 94.54C61.5275 94.7263 61.3282 94.9885 61.1982 95.3265C61.0682 95.6602 61.0032 96.048 61.0032 96.49C61.0032 97.1703 61.157 97.7142 61.4647 98.1215C61.7767 98.5245 62.2339 98.726 62.8362 98.726ZM71.8863 100C71.4226 100.087 70.9676 100.124 70.5213 100.111C70.0793 100.102 69.6828 100.022 69.3318 99.87C68.9808 99.714 68.7143 99.4692 68.5323 99.1355C68.372 98.8322 68.2875 98.5223 68.2788 98.206C68.2701 97.8897 68.2658 97.5322 68.2658 97.1335V91.03H69.8258V97.0425C69.8258 97.3242 69.828 97.5712 69.8323 97.7835C69.841 97.9958 69.8865 98.1692 69.9688 98.3035C70.1248 98.5635 70.374 98.7087 70.7163 98.739C71.0587 98.7693 71.4487 98.752 71.8863 98.687V100ZM66.9918 94.2085V92.98H71.8863V94.2085H66.9918ZM78.2513 100V96.62C78.2513 96.399 78.2362 96.1542 78.2058 95.8855C78.1755 95.6168 78.104 95.359 77.9913 95.112C77.883 94.8607 77.7183 94.6548 77.4973 94.4945C77.2807 94.3342 76.986 94.254 76.6133 94.254C76.414 94.254 76.2168 94.2865 76.0218 94.3515C75.8268 94.4165 75.6492 94.5292 75.4888 94.6895C75.3328 94.8455 75.2072 95.0622 75.1118 95.3395C75.0165 95.6125 74.9688 95.9635 74.9688 96.3925L74.0393 95.996C74.0393 95.398 74.1542 94.8563 74.3838 94.371C74.6178 93.8857 74.9602 93.5 75.4108 93.214C75.8615 92.9237 76.4162 92.7785 77.0748 92.7785C77.5948 92.7785 78.0238 92.8652 78.3618 93.0385C78.6998 93.2118 78.9685 93.4328 79.1678 93.7015C79.3672 93.9702 79.5145 94.2562 79.6098 94.5595C79.7052 94.8628 79.7658 95.151 79.7918 95.424C79.8222 95.6927 79.8373 95.9115 79.8373 96.0805V100H78.2513ZM73.3828 100V90.64H74.7803V95.567H74.9688V100H73.3828ZM81.6635 91.914V90.4775H83.23V91.914H81.6635ZM81.6635 100V92.98H83.23V100H81.6635ZM90.0326 100V96.62C90.0326 96.399 90.0174 96.1542 89.9871 95.8855C89.9568 95.6168 89.8853 95.359 89.7726 95.112C89.6643 94.8607 89.4996 94.6548 89.2786 94.4945C89.0619 94.3342 88.7673 94.254 88.3946 94.254C88.1953 94.254 87.9981 94.2865 87.8031 94.3515C87.6081 94.4165 87.4304 94.5292 87.2701 94.6895C87.1141 94.8455 86.9884 95.0622 86.8931 95.3395C86.7978 95.6125 86.7501 95.9635 86.7501 96.3925L85.8206 95.996C85.8206 95.398 85.9354 94.8563 86.1651 94.371C86.3991 93.8857 86.7414 93.5 87.1921 93.214C87.6428 92.9237 88.1974 92.7785 88.8561 92.7785C89.3761 92.7785 89.8051 92.8652 90.1431 93.0385C90.4811 93.2118 90.7498 93.4328 90.9491 93.7015C91.1484 93.9702 91.2958 94.2562 91.3911 94.5595C91.4864 94.8628 91.5471 95.151 91.5731 95.424C91.6034 95.6927 91.6186 95.9115 91.6186 96.0805V100H90.0326ZM85.1641 100V92.98H86.5616V95.1575H86.7501V100H85.1641ZM96.2658 103.315C95.8758 103.315 95.501 103.254 95.1413 103.133C94.786 103.012 94.4653 102.836 94.1793 102.607C93.8933 102.381 93.6593 102.108 93.4773 101.788L94.9203 101.073C95.0546 101.328 95.2431 101.517 95.4858 101.638C95.7328 101.764 95.995 101.827 96.2723 101.827C96.5973 101.827 96.8876 101.768 97.1433 101.651C97.399 101.538 97.5961 101.369 97.7348 101.144C97.8778 100.923 97.945 100.646 97.9363 100.312V98.3165H98.1313V92.98H99.5028V100.338C99.5028 100.516 99.4941 100.685 99.4768 100.845C99.4638 101.01 99.44 101.17 99.4053 101.326C99.3013 101.781 99.102 102.154 98.8073 102.444C98.5126 102.739 98.1465 102.958 97.7088 103.101C97.2755 103.244 96.7945 103.315 96.2658 103.315ZM96.1293 100.195C95.4836 100.195 94.9203 100.033 94.4393 99.7075C93.9583 99.3825 93.5856 98.9405 93.3213 98.3815C93.057 97.8225 92.9248 97.192 92.9248 96.49C92.9248 95.7793 93.057 95.1467 93.3213 94.592C93.59 94.033 93.9691 93.5932 94.4588 93.2725C94.9485 92.9475 95.5248 92.785 96.1878 92.785C96.8551 92.785 97.4141 92.9475 97.8648 93.2725C98.3198 93.5932 98.6643 94.033 98.8983 94.592C99.1323 95.151 99.2493 95.7837 99.2493 96.49C99.2493 97.1877 99.1323 97.8182 98.8983 98.3815C98.6643 98.9405 98.3155 99.3825 97.8518 99.7075C97.3881 100.033 96.814 100.195 96.1293 100.195ZM96.3698 98.791C96.7901 98.791 97.1281 98.6957 97.3838 98.505C97.6438 98.31 97.8323 98.0392 97.9493 97.6925C98.0706 97.3458 98.1313 96.945 98.1313 96.49C98.1313 96.0307 98.0706 95.6298 97.9493 95.2875C97.8323 94.9408 97.6481 94.6722 97.3968 94.4815C97.1455 94.2865 96.8205 94.189 96.4218 94.189C96.0015 94.189 95.6548 94.293 95.3818 94.501C95.1088 94.7047 94.9073 94.982 94.7773 95.333C94.6473 95.6797 94.5823 96.0653 94.5823 96.49C94.5823 96.919 94.6451 97.309 94.7708 97.66C94.9008 98.0067 95.098 98.2818 95.3623 98.4855C95.6266 98.6892 95.9625 98.791 96.3698 98.791Z" fill="#E5CEF8"/>
</g>
<defs>
<filter id="filter0_d_1_25" x="12.5487" y="23.5342" width="124.926" height="94.4658" filterUnits="userSpaceOnUse" color-interpolation-filters="sRGB">
<feFlood flood-opacity="0" result="BackgroundImageFix"/>
<feColorMatrix in="SourceAlpha" type="matrix" values="0 0 0 0 0 0 0 0 0 0 0 0 0 0 0 0 0 0 127 0" result="hardAlpha"/>
<feOffset dy="4"/>
<feGaussianBlur stdDeviation="2"/>
<feComposite in2="hardAlpha" operator="out"/>
<feColorMatrix type="matrix" values="0 0 0 0 0 0 0 0 0 0 0 0 0 0 0 0 0 0 0.25 0"/>
<feBlend mode="normal" in2="BackgroundImageFix" result="effect1_dropShadow_1_25"/>
<feBlend mode="normal" in="SourceGraphic" in2="effect1_dropShadow_1_25" result="shape"/>
</filter>
<clipPath id="clip0_1_25">
<rect width="153" height="128" fill="white"/>
</clipPath>
</defs>
</svg>
